<mxfile host="app.diagrams.net" modified="2023-05-06T22:05:38.383Z" agent="Mozilla/5.0 (X11; CrOS x86_64 14541.0.0) AppleWebKit/537.36 (KHTML, like Gecko) Chrome/112.0.0.0 Safari/537.36" version="21.2.9" etag="yTfEYde46-RvqYQbb8xJ" type="github">
  <diagram id="C5RBs43oDa-KdzZeNtuy" name="Page-1">
    <mxGraphModel dx="1223" dy="898" grid="1" gridSize="10" guides="1" tooltips="1" connect="1" arrows="1" fold="1" page="1" pageScale="1" pageWidth="827" pageHeight="1169" math="0" shadow="0">
      <root>
        <mxCell id="0"/>
        <mxCell id="1" parent="0"/>
        <mxCell id="2" value="Car Company" style="rounded=1;whiteSpace=wrap;html=1;fillColor=#008cff;strokeColor=#000000;" vertex="1" parent="1">
          <mxGeometry x="280" y="30" width="200" height="60" as="geometry"/>
        </mxCell>
        <mxCell id="3" value="Customers" style="whiteSpace=wrap;html=1;fillColor=#e7f1ff;strokeColor=#000000;" vertex="1" parent="1">
          <mxGeometry x="10" y="110" width="80" height="40" as="geometry"/>
        </mxCell>
        <mxCell id="4" value="Sales and Marketing" style="whiteSpace=wrap;html=1;fillColor=#e7f1ff;strokeColor=#000000;" vertex="1" parent="1">
          <mxGeometry x="130" y="110" width="140" height="40" as="geometry"/>
        </mxCell>
        <mxCell id="5" value="Sales" style="whiteSpace=wrap;html=1;fillColor=#e7f1ff;strokeColor=#000000;" vertex="1" parent="1">
          <mxGeometry x="310" y="110" width="80" height="40" as="geometry"/>
        </mxCell>
        <mxCell id="6" value="Inventory Control" style="whiteSpace=wrap;html=1;fillColor=#e7f1ff;strokeColor=#000000;" vertex="1" parent="1">
          <mxGeometry x="430" y="110" width="140" height="40" as="geometry"/>
        </mxCell>
        <mxCell id="7" value="Manufacturing" style="whiteSpace=wrap;html=1;fillColor=#e7f1ff;strokeColor=#000000;" vertex="1" parent="1">
          <mxGeometry x="10" y="240" width="120" height="40" as="geometry"/>
        </mxCell>
        <mxCell id="8" value="Suppliers" style="whiteSpace=wrap;html=1;fillColor=#e7f1ff;strokeColor=#000000;" vertex="1" parent="1">
          <mxGeometry x="180" y="240" width="80" height="40" as="geometry"/>
        </mxCell>
        <mxCell id="9" value="" edge="1" parent="1" source="3" target="4">
          <mxGeometry relative="1" as="geometry"/>
        </mxCell>
        <mxCell id="10" value="" edge="1" parent="1" source="4" target="5">
          <mxGeometry relative="1" as="geometry"/>
        </mxCell>
      </root>
    </mxGraphModel>
  </diagram>
</mxfile>
